<mxfile host="app.diagrams.net" modified="2023-10-27T03:31:59.339Z" agent="Mozilla/5.0 (Windows NT 10.0; Win64; x64) AppleWebKit/537.36 (KHTML, like Gecko) Chrome/118.0.0.0 Safari/537.36" etag="2bFt81-ZlfKh9x9WI3sS" version="22.0.8" type="device">
  <diagram name="Page-1" id="zck-V9cgHBKQe8lJC0sY">
    <mxGraphModel dx="1050" dy="542" grid="1" gridSize="10" guides="1" tooltips="1" connect="1" arrows="1" fold="1" page="1" pageScale="1" pageWidth="827" pageHeight="1169" math="0" shadow="0">
      <root>
        <mxCell id="0" />
        <mxCell id="1" parent="0" />
        <mxCell id="UtV2wC21X75EPFO7jreI-5" style="edgeStyle=orthogonalEdgeStyle;rounded=0;orthogonalLoop=1;jettySize=auto;html=1;exitX=0.5;exitY=1;exitDx=0;exitDy=0;entryX=0.5;entryY=0;entryDx=0;entryDy=0;" parent="1" edge="1">
          <mxGeometry relative="1" as="geometry">
            <mxPoint x="375" y="65" as="sourcePoint" />
            <mxPoint x="375" y="125" as="targetPoint" />
            <Array as="points">
              <mxPoint x="375.5" y="125" />
              <mxPoint x="375.5" y="125" />
            </Array>
          </mxGeometry>
        </mxCell>
        <mxCell id="UtV2wC21X75EPFO7jreI-16" value="" style="edgeStyle=orthogonalEdgeStyle;rounded=0;orthogonalLoop=1;jettySize=auto;html=1;" parent="1" source="UtV2wC21X75EPFO7jreI-3" target="UtV2wC21X75EPFO7jreI-13" edge="1">
          <mxGeometry relative="1" as="geometry" />
        </mxCell>
        <mxCell id="UtV2wC21X75EPFO7jreI-3" value="" style="rounded=0;whiteSpace=wrap;html=1;" parent="1" vertex="1">
          <mxGeometry x="320" y="270" width="120" height="50" as="geometry" />
        </mxCell>
        <mxCell id="UtV2wC21X75EPFO7jreI-17" value="" style="edgeStyle=orthogonalEdgeStyle;rounded=0;orthogonalLoop=1;jettySize=auto;html=1;" parent="1" source="UtV2wC21X75EPFO7jreI-4" edge="1">
          <mxGeometry relative="1" as="geometry">
            <mxPoint x="580" y="360" as="targetPoint" />
          </mxGeometry>
        </mxCell>
        <mxCell id="UtV2wC21X75EPFO7jreI-4" value="" style="rounded=0;whiteSpace=wrap;html=1;" parent="1" vertex="1">
          <mxGeometry x="520" y="260" width="120" height="50" as="geometry" />
        </mxCell>
        <mxCell id="UtV2wC21X75EPFO7jreI-15" style="edgeStyle=orthogonalEdgeStyle;rounded=0;orthogonalLoop=1;jettySize=auto;html=1;" parent="1" target="UtV2wC21X75EPFO7jreI-12" edge="1">
          <mxGeometry relative="1" as="geometry">
            <mxPoint x="180" y="370" as="sourcePoint" />
          </mxGeometry>
        </mxCell>
        <mxCell id="UtV2wC21X75EPFO7jreI-8" value="" style="strokeWidth=2;html=1;shape=mxgraph.flowchart.annotation_2;align=left;labelPosition=right;pointerEvents=1;direction=south;" parent="1" vertex="1">
          <mxGeometry x="174" y="200" width="410" height="50" as="geometry" />
        </mxCell>
        <mxCell id="UtV2wC21X75EPFO7jreI-11" value="" style="line;strokeWidth=2;direction=south;html=1;" parent="1" vertex="1">
          <mxGeometry x="375" y="230" width="10" height="40" as="geometry" />
        </mxCell>
        <mxCell id="UtV2wC21X75EPFO7jreI-12" value="&lt;font style=&quot;font-size: 14px;&quot; face=&quot;Verdana&quot;&gt;Email Server&lt;/font&gt;" style="rounded=0;whiteSpace=wrap;html=1;" parent="1" vertex="1">
          <mxGeometry x="120" y="470" width="120" height="50" as="geometry" />
        </mxCell>
        <mxCell id="UtV2wC21X75EPFO7jreI-19" value="" style="edgeStyle=orthogonalEdgeStyle;rounded=0;orthogonalLoop=1;jettySize=auto;html=1;" parent="1" source="UtV2wC21X75EPFO7jreI-13" edge="1">
          <mxGeometry relative="1" as="geometry">
            <mxPoint x="380" y="460" as="targetPoint" />
          </mxGeometry>
        </mxCell>
        <mxCell id="UtV2wC21X75EPFO7jreI-13" value="&lt;font face=&quot;Verdana&quot; style=&quot;font-size: 14px;&quot;&gt;IDS/IPS Server&lt;/font&gt;" style="rounded=0;whiteSpace=wrap;html=1;" parent="1" vertex="1">
          <mxGeometry x="320" y="360" width="120" height="50" as="geometry" />
        </mxCell>
        <mxCell id="UtV2wC21X75EPFO7jreI-20" value="&lt;font face=&quot;Verdana&quot; style=&quot;font-size: 14px;&quot;&gt;Internet&lt;/font&gt;" style="text;html=1;strokeColor=none;fillColor=none;align=center;verticalAlign=middle;whiteSpace=wrap;rounded=0;" parent="1" vertex="1">
          <mxGeometry x="305" y="60" width="70" height="30" as="geometry" />
        </mxCell>
        <mxCell id="UtV2wC21X75EPFO7jreI-21" value="&lt;font style=&quot;font-size: 14px;&quot; face=&quot;Verdana&quot;&gt;External Firewall&lt;/font&gt;" style="text;html=1;strokeColor=none;fillColor=none;align=center;verticalAlign=middle;whiteSpace=wrap;rounded=0;" parent="1" vertex="1">
          <mxGeometry x="280" y="145" width="60" height="30" as="geometry" />
        </mxCell>
        <mxCell id="UtV2wC21X75EPFO7jreI-23" value="&lt;font face=&quot;Verdana&quot; style=&quot;font-size: 14px;&quot;&gt;Application Server&lt;/font&gt;" style="text;html=1;strokeColor=none;fillColor=none;align=center;verticalAlign=middle;whiteSpace=wrap;rounded=0;" parent="1" vertex="1">
          <mxGeometry x="350" y="280" width="60" height="30" as="geometry" />
        </mxCell>
        <mxCell id="UtV2wC21X75EPFO7jreI-24" value="&lt;font face=&quot;Verdana&quot; style=&quot;font-size: 14px;&quot;&gt;Employee Server&lt;/font&gt;" style="text;html=1;strokeColor=none;fillColor=none;align=center;verticalAlign=middle;whiteSpace=wrap;rounded=0;" parent="1" vertex="1">
          <mxGeometry x="550" y="270" width="60" height="30" as="geometry" />
        </mxCell>
        <mxCell id="UtV2wC21X75EPFO7jreI-25" value="5" style="image;aspect=fixed;perimeter=ellipsePerimeter;html=1;align=center;shadow=0;dashed=0;spacingTop=3;image=img/lib/active_directory/databases.svg;" parent="1" vertex="1">
          <mxGeometry x="323.37" y="460" width="113.27" height="111" as="geometry" />
        </mxCell>
        <mxCell id="UtV2wC21X75EPFO7jreI-26" value="&lt;font style=&quot;font-size: 14px;&quot; face=&quot;Verdana&quot;&gt;Database&lt;/font&gt;" style="text;html=1;strokeColor=none;fillColor=none;align=center;verticalAlign=middle;whiteSpace=wrap;rounded=0;" parent="1" vertex="1">
          <mxGeometry x="350" y="571" width="60" height="30" as="geometry" />
        </mxCell>
        <mxCell id="UtV2wC21X75EPFO7jreI-27" value="" style="image;aspect=fixed;perimeter=ellipsePerimeter;html=1;align=center;shadow=0;dashed=0;spacingTop=3;image=img/lib/active_directory/database_server.svg;" parent="1" vertex="1">
          <mxGeometry x="539.5" y="370" width="81" height="98.78" as="geometry" />
        </mxCell>
        <mxCell id="UtV2wC21X75EPFO7jreI-29" value="&lt;font face=&quot;Verdana&quot; style=&quot;font-size: 14px;&quot;&gt;DBMS Server&lt;/font&gt;" style="text;html=1;align=center;verticalAlign=middle;resizable=0;points=[];autosize=1;strokeColor=none;fillColor=none;" parent="1" vertex="1">
          <mxGeometry x="520" y="480" width="120" height="30" as="geometry" />
        </mxCell>
        <mxCell id="UtV2wC21X75EPFO7jreI-30" value="" style="shape=image;html=1;verticalAlign=top;verticalLabelPosition=bottom;labelBackgroundColor=#ffffff;imageAspect=0;aspect=fixed;image=https://cdn1.iconfinder.com/data/icons/cloud-72/64/universal-access-sever-internet-user-connection-world-128.png" parent="1" vertex="1">
          <mxGeometry x="120" y="260" width="119.5" height="119.5" as="geometry" />
        </mxCell>
        <mxCell id="UtV2wC21X75EPFO7jreI-31" value="&lt;font style=&quot;font-size: 14px;&quot; face=&quot;Verdana&quot;&gt;Web Server&lt;/font&gt;" style="text;html=1;align=center;verticalAlign=middle;resizable=0;points=[];autosize=1;strokeColor=none;fillColor=none;" parent="1" vertex="1">
          <mxGeometry x="65" y="379.5" width="110" height="30" as="geometry" />
        </mxCell>
        <mxCell id="UtV2wC21X75EPFO7jreI-32" value="" style="image;aspect=fixed;perimeter=ellipsePerimeter;html=1;align=center;shadow=0;dashed=0;spacingTop=3;image=img/lib/active_directory/internet_globe.svg;" parent="1" vertex="1">
          <mxGeometry x="344" width="70" height="70" as="geometry" />
        </mxCell>
        <mxCell id="UtV2wC21X75EPFO7jreI-33" value="" style="image;html=1;image=img/lib/clip_art/networking/Firewall-page1_128x128.png" parent="1" vertex="1">
          <mxGeometry x="340" y="120" width="80" height="80" as="geometry" />
        </mxCell>
      </root>
    </mxGraphModel>
  </diagram>
</mxfile>
